<svg width="31" height="21" viewBox="0 0 31 21" fill="none" xmlns="http://www.w3.org/2000/svg">
<path d="M28.9807 0.804298C28.8726 0.262693 28.3459 -0.0887465 27.8043 0.0193366L18.9783 1.78065C18.4367 1.88874 18.0853 2.41541 18.1934 2.95702C18.3015 3.49862 18.8281 3.85006 19.3697 3.74198L27.215 2.17637L28.7807 10.0217C28.8887 10.5633 29.4154 10.9147 29.957 10.8066C30.4986 10.6986 30.8501 10.1719 30.742 9.63027L28.9807 0.804298ZM21.6609 10.5L20.8291 9.94495L21.6609 10.5ZM18.6961 14.9431L17.8642 14.3881L18.6961 14.9431ZM1.74925 20.6623L6.9598 14.7676L5.4613 13.443L0.250751 19.3377L1.74925 20.6623ZM19.5279 15.4982L22.4927 11.0551L20.8291 9.94495L17.8642 14.3881L19.5279 15.4982ZM22.4927 11.0551L28.8318 1.55505L27.1682 0.444948L20.8291 9.94495L22.4927 11.0551ZM11.4304 15.2235C13.1904 18.2931 17.5639 18.4415 19.5279 15.4982L17.8642 14.3881C16.7246 16.096 14.1867 16.0099 13.1654 14.2287L11.4304 15.2235ZM6.9598 14.7676C8.2133 13.3495 10.4889 13.5816 11.4304 15.2235L13.1654 14.2287C11.543 11.3992 7.62145 10.9992 5.4613 13.443L6.9598 14.7676Z" fill="#00BF2A"/>
</svg>
