<svg width="31" height="21" viewBox="0 0 31 21" fill="none" xmlns="http://www.w3.org/2000/svg">
<path d="M6.21055 6.89472L5.4613 7.557L6.21055 6.89472ZM18.6961 6.05686L19.5279 5.50181L18.6961 6.05686ZM28.9807 20.1957C28.8726 20.7373 28.3459 21.0887 27.8043 20.9807L18.9783 19.2193C18.4367 19.1113 18.0853 18.5846 18.1934 18.043C18.3014 17.5014 18.8281 17.1499 19.3697 17.258L27.215 18.8236L28.7807 10.9783C28.8887 10.4367 29.4154 10.0853 29.957 10.1934C30.4986 10.3014 30.8501 10.8281 30.742 11.3697L28.9807 20.1957ZM12.2979 6.27391L11.4304 5.7765L12.2979 6.27391ZM1.74925 0.337711L6.9598 6.23243L5.4613 7.557L0.250751 1.66229L1.74925 0.337711ZM19.5279 5.50181L28.8318 19.4449L27.1682 20.5551L17.8642 6.61191L19.5279 5.50181ZM11.4304 5.7765C13.1904 2.70688 17.5639 2.55852 19.5279 5.50181L17.8642 6.61191C16.7246 4.90397 14.1867 4.99006 13.1654 6.77131L11.4304 5.7765ZM6.9598 6.23243C8.2133 7.65051 10.4889 7.41844 11.4304 5.7765L13.1654 6.77131C11.543 9.60085 7.62145 10.0008 5.4613 7.557L6.9598 6.23243Z" fill="#E50000"/>
</svg>
